<?xml version="1.0" standalone="no"?><!DOCTYPE svg PUBLIC "-//W3C//DTD SVG 1.1//EN" "http://www.w3.org/Graphics/SVG/1.1/DTD/svg11.dtd"><svg t="1652542097902" class="icon" viewBox="0 0 1024 1024" version="1.1" xmlns="http://www.w3.org/2000/svg" p-id="13792" xmlns:xlink="http://www.w3.org/1999/xlink" width="200" height="200"><defs><style type="text/css">@font-face { font-family: feedback-iconfont; src: url("//at.alicdn.com/t/font_1031158_u69w8yhxdu.woff2?t=1630033759944") format("woff2"), url("//at.alicdn.com/t/font_1031158_u69w8yhxdu.woff?t=1630033759944") format("woff"), url("//at.alicdn.com/t/font_1031158_u69w8yhxdu.ttf?t=1630033759944") format("truetype"); }
</style></defs><path d="M284.434286 971.428571h455.131428c88.722286 0 132.864-45.001143 132.864-134.144V448.146286H562.139429c-54.857143 0-80.566857-26.148571-80.566858-81.005715V52.571429H284.434286c-88.283429 0-132.864 45.421714-132.864 134.582857v650.130285c0 89.563429 44.580571 134.144 132.864 134.144z m279.003428-581.997714h304.274286c-2.998857-17.572571-15.433143-34.724571-35.565714-55.716571L595.565714 93.275429c-19.712-20.553143-37.705143-32.987429-55.716571-35.986286V366.262857c0 15.433143 8.155429 23.149714 23.588571 23.149714zM512 862.573714c-8.137143 0-14.994286-2.998857-24.009143-10.715428l-118.710857-109.714286c-6.857143-5.997714-10.715429-13.293714-10.715429-23.149714 0-16.713143 12.854857-29.129143 30.427429-29.129143 8.155429 0 16.731429 3.419429 23.149714 9.417143l36.004572 36.864 34.285714 34.706285-2.998857-64.713142V561.737143c0-17.152 14.994286-31.725714 32.566857-31.725714 17.993143 0 33.005714 14.573714 33.005714 31.725714v144.420571l-2.998857 64.731429 33.846857-34.742857 36.425143-36.845715a32.859429 32.859429 0 0 1 22.729143-9.417142c17.554286 0 30.427429 12.434286 30.427429 29.129142 0 9.874286-3.437714 16.713143-10.715429 23.149715l-118.710857 109.714285c-8.594286 7.716571-15.872 10.715429-24.009143 10.715429z" p-id="13793" fill="#3ccab2"></path></svg>