<?xml version="1.0" standalone="no"?><!DOCTYPE svg PUBLIC "-//W3C//DTD SVG 1.1//EN" "http://www.w3.org/Graphics/SVG/1.1/DTD/svg11.dtd"><svg t="1652544813955" class="icon" viewBox="0 0 1024 1024" version="1.1" xmlns="http://www.w3.org/2000/svg" p-id="31649" xmlns:xlink="http://www.w3.org/1999/xlink" width="200" height="200"><defs><style type="text/css">@font-face { font-family: feedback-iconfont; src: url("//at.alicdn.com/t/font_1031158_u69w8yhxdu.woff2?t=1630033759944") format("woff2"), url("//at.alicdn.com/t/font_1031158_u69w8yhxdu.woff?t=1630033759944") format("woff"), url("//at.alicdn.com/t/font_1031158_u69w8yhxdu.ttf?t=1630033759944") format("truetype"); }
</style></defs><path d="M938.11 370.858L653.122 85.875c-15.384-15.383-35.9-23.856-57.77-23.856-21.869 0-42.386 8.47-57.77 23.852L85.854 537.6C70.473 552.983 62 573.497 62 595.368c0 21.87 8.473 42.388 23.855 57.769l35.142 35.142 0.01 0.008 0.01 0.011 236.18 236.18h-32.703c-10.353 0-18.749 8.393-18.749 18.749 0 10.353 8.396 18.748 18.75 18.748h104.042l0.072 0.002 0.072-0.002 270.797 0.004c10.353 0 18.749-8.395 18.749-18.749 0-10.355-8.396-18.749-18.75-18.749l-199.448-0.003 438.082-438.082c31.852-31.855 31.852-83.686-0.001-115.538z m-26.515 89.023l-451.73 451.73c-8.285 8.282-19.359 12.85-31.187 12.867h-0.142c-11.825-0.02-22.896-4.585-31.177-12.867L160.78 675.03 594.6 241.206c7.32-7.321 7.32-19.193 0-26.515-7.323-7.32-19.192-7.32-26.517 0.002l-433.82 433.823-21.895-21.895C104.07 618.323 99.5 607.224 99.5 595.37s4.57-22.956 12.871-31.256l451.726-451.726c8.3-8.299 19.401-12.87 31.256-12.87s22.955 4.571 31.256 12.871l101.43 101.43-433.824 433.828c-7.321 7.32-7.321 19.192 0 26.516a18.696 18.696 0 0 0 13.257 5.49c4.798 0 9.596-1.832 13.258-5.491l433.825-433.827 157.04 157.036c17.233 17.234 17.23 45.276 0 62.51z" p-id="31650" fill="#3ec9ae"></path><path d="M523.955 603.519c-7.321-7.322-19.19-7.32-26.517 0l-147.54 147.538c-7.321 7.322-7.321 19.192 0 26.517a18.69 18.69 0 0 0 13.257 5.491c4.798 0 9.596-1.831 13.258-5.491l147.54-147.539c7.323-7.324 7.323-19.195 0.002-26.516zM463.44 743.576l-60.512 60.513c-7.322 7.321-7.322 19.193 0 26.516a18.698 18.698 0 0 0 13.257 5.492c4.8 0 9.596-1.832 13.258-5.492l60.512-60.512c7.322-7.322 7.322-19.194 0-26.517s-19.188-7.323-26.515 0z m55.686-55.68l-7.954 7.952c-7.323 7.321-7.323 19.192-0.002 26.516a18.69 18.69 0 0 0 13.258 5.494 18.686 18.686 0 0 0 13.255-5.494l7.955-7.952c7.323-7.321 7.323-19.192 0.001-26.515-7.318-7.321-19.192-7.323-26.513-0.001z m258.432-337.979a18.749 18.749 0 0 0-26.515 0l-79.55 79.548a18.752 18.752 0 0 0 0 26.515l53.034 53.028a18.69 18.69 0 0 0 13.257 5.492c4.8 0 9.596-1.832 13.257-5.492l79.547-79.544c7.321-7.322 7.321-19.194 0-26.515l-53.03-53.032z m-39.776 119.32l-26.516-26.514 53.033-53.032 26.515 26.517-53.032 53.03zM625.096 202.953c4.8 0 9.6-1.832 13.26-5.495l7.953-7.958c7.32-7.323 7.318-19.195-0.005-26.514-7.321-7.32-19.195-7.318-26.515 0.005l-7.954 7.957c-7.32 7.324-7.318 19.196 0.005 26.515a18.682 18.682 0 0 0 13.256 5.49zM250.464 691.397l-7.954 7.954c-7.322 7.32-7.322 19.192 0 26.517 3.661 3.66 8.46 5.49 13.257 5.49s9.596-1.83 13.258-5.49l7.954-7.954c7.321-7.323 7.321-19.196 0-26.517-7.323-7.323-19.192-7.323-26.515 0z" p-id="31651" fill="#3ec9ae"></path></svg>