<?xml version="1.0" standalone="no"?><!DOCTYPE svg PUBLIC "-//W3C//DTD SVG 1.1//EN" "http://www.w3.org/Graphics/SVG/1.1/DTD/svg11.dtd"><svg t="1652540045729" class="icon" viewBox="0 0 1024 1024" version="1.1" xmlns="http://www.w3.org/2000/svg" p-id="10154" xmlns:xlink="http://www.w3.org/1999/xlink" width="200" height="200"><defs><style type="text/css">@font-face { font-family: feedback-iconfont; src: url("//at.alicdn.com/t/font_1031158_u69w8yhxdu.woff2?t=1630033759944") format("woff2"), url("//at.alicdn.com/t/font_1031158_u69w8yhxdu.woff?t=1630033759944") format("woff"), url("//at.alicdn.com/t/font_1031158_u69w8yhxdu.ttf?t=1630033759944") format("truetype"); }
</style></defs><path d="M896 170.666667a55.893333 55.893333 0 0 0-2.56-11.52v-3.84a42.666667 42.666667 0 0 0-8.533333-12.8 42.666667 42.666667 0 0 0-12.373334-8.106667h-3.84a36.693333 36.693333 0 0 0-13.226666-6.4H853.333333a42.666667 42.666667 0 0 0-12.8 0l-768 256a42.666667 42.666667 0 0 0 0 81.066667l363.946667 121.173333 121.173333 363.946667a42.666667 42.666667 0 0 0 81.066667 0l256-768A42.666667 42.666667 0 0 0 896 170.666667z m-200.533333 97.706666l-237.653334 237.653334L220.16 426.666667zM597.333333 803.84l-79.36-237.653333 237.653334-237.653334z" p-id="10155"></path></svg>