<?xml version="1.0" standalone="no"?><!DOCTYPE svg PUBLIC "-//W3C//DTD SVG 1.1//EN" "http://www.w3.org/Graphics/SVG/1.1/DTD/svg11.dtd"><svg t="1652544285135" class="icon" viewBox="0 0 1024 1024" version="1.1" xmlns="http://www.w3.org/2000/svg" p-id="25750" xmlns:xlink="http://www.w3.org/1999/xlink" width="200" height="200"><defs><style type="text/css">@font-face { font-family: feedback-iconfont; src: url("//at.alicdn.com/t/font_1031158_u69w8yhxdu.woff2?t=1630033759944") format("woff2"), url("//at.alicdn.com/t/font_1031158_u69w8yhxdu.woff?t=1630033759944") format("woff"), url("//at.alicdn.com/t/font_1031158_u69w8yhxdu.ttf?t=1630033759944") format("truetype"); }
</style></defs><path d="M704 945.28c-85.12 0-157.12-75.52-192-201.92L389.76 315.2c-23.04-81.28-57.6-108.8-69.76-108.8s-46.72 27.52-69.76 108.8l-60.8 214.08a64 64 0 1 1-123.2-34.88L128 280.32c35.84-126.4 107.84-201.92 192-201.92s157.12 75.52 192 201.92l121.28 428.16c23.04 81.28 57.6 108.8 69.76 108.8s46.72-27.52 69.76-108.8l60.8-214.08a64 64 0 1 1 123.2 34.88l-60.8 214.4c-34.88 126.4-106.88 201.6-192 201.6z" fill="#3ec9ae" p-id="25751"></path></svg>