<?xml version="1.0" standalone="no"?><!DOCTYPE svg PUBLIC "-//W3C//DTD SVG 1.1//EN" "http://www.w3.org/Graphics/SVG/1.1/DTD/svg11.dtd"><svg t="1652545145819" class="icon" viewBox="0 0 1024 1024" version="1.1" xmlns="http://www.w3.org/2000/svg" p-id="51749" xmlns:xlink="http://www.w3.org/1999/xlink" width="200" height="200"><defs><style type="text/css">@font-face { font-family: feedback-iconfont; src: url("//at.alicdn.com/t/font_1031158_u69w8yhxdu.woff2?t=1630033759944") format("woff2"), url("//at.alicdn.com/t/font_1031158_u69w8yhxdu.woff?t=1630033759944") format("woff"), url("//at.alicdn.com/t/font_1031158_u69w8yhxdu.ttf?t=1630033759944") format("truetype"); }
</style></defs><path d="M512 469.333333c-110.933333 0-202.666667-91.733333-202.666667-202.666666S401.066667 64 512 64s202.666667 91.733333 202.666667 202.666667S622.933333 469.333333 512 469.333333z m0-341.333333c-76.8 0-138.666667 61.866667-138.666667 138.666667S435.2 405.333333 512 405.333333s138.666667-61.866667 138.666667-138.666666S588.8 128 512 128zM637.866667 960h-192c-117.333333 2.133333-211.2 2.133333-258.133334-44.8-21.333333-21.333333-32-49.066667-29.866666-78.933333 0-160 157.866667-290.133333 354.133333-290.133334 198.4 0 354.133333 128 354.133333 290.133334 2.133333 29.866667-10.666667 57.6-29.866666 78.933333-40.533333 38.4-110.933333 44.8-198.4 44.8zM512 896h68.266667c93.866667 2.133333 181.333333 2.133333 211.2-25.6 8.533333-8.533333 12.8-21.333333 10.666666-34.133333 0-128-128-226.133333-290.133333-226.133334s-290.133333 102.4-290.133333 226.133334c-2.133333 12.8 2.133333 25.6 10.666666 34.133333 29.866667 27.733333 119.466667 27.733333 213.333334 25.6H512z" p-id="51750" fill="#9a9ba3"></path></svg>