<?xml version="1.0" encoding="UTF-8"?>
<svg width="22px" height="22px" viewBox="0 0 22 22" version="1.1" xmlns="http://www.w3.org/2000/svg" xmlns:xlink="http://www.w3.org/1999/xlink">
    <title>applepay</title>
    <g id="页面-1" stroke="none" stroke-width="1" fill="none" fill-rule="evenodd">
        <g id="比价详情页备份-4" transform="translate(-28.000000, -1217.000000)">
            <g id="编组-7备份-3" transform="translate(16.000000, 1166.000000)">
                <g id="applepay" transform="translate(12.000000, 51.000000)">
                    <rect id="矩形备份-5" fill="#333333" x="0" y="0" width="22" height="22" rx="4"></rect>
                    <path d="M15.2453542,12.5739469 C15.6097495,13.1012821 16.0289523,13.4412546 16.5,13.5953755 C16.2955831,14.2405678 15.9697011,14.9114469 15.5253165,15.6110348 C14.8394829,16.6641941 14.1640183,17.1915293 13.4959601,17.1915293 C13.2471048,17.1915293 12.8767843,17.1054029 12.3879612,16.9331502 C11.9346889,16.7608974 11.5377054,16.6747711 11.1999731,16.6747711 C10.8622408,16.6747711 10.4874764,16.7654304 10.0786426,16.9467491 C9.6520334,17.1190018 9.29948828,17.2051282 9.02396984,17.2051282 C8.22259628,17.2051282 7.43455427,16.5100733 6.66132507,15.1214744 C5.8866146,13.7510073 5.5,12.4016941 5.5,11.0765568 C5.5,9.85114469 5.79329383,8.84784799 6.38136278,8.06666667 C6.98720711,7.28548535 7.73377323,6.89565018 8.6240237,6.89565018 C8.81955292,6.89565018 9.03730137,6.921337 9.27875034,6.97119963 C9.51871802,7.02106227 9.76905467,7.11474359 10.0267977,7.2507326 C10.3023162,7.40485348 10.5304336,7.5121337 10.7081874,7.57106227 C10.8859413,7.62999084 11.0237005,7.66021062 11.1214651,7.66021062 C11.2370051,7.66021062 11.414759,7.63301282 11.6562079,7.57861722 C11.8961756,7.52422161 12.1376246,7.42449634 12.3775922,7.27944139 C12.6353353,7.13438645 12.8590089,7.02559524 13.0456504,6.95306777 C13.2322919,6.88054029 13.4233773,6.84427656 13.6203878,6.84427656 C14.2440075,6.84427656 14.8039321,7.0165293 15.3031242,7.36254579 C15.5697549,7.54386447 15.8423108,7.81130952 16.1178292,8.16639194 C15.7089954,8.5290293 15.4097765,8.84784799 15.2231349,9.11982601 C14.8765149,9.6290293 14.7017237,10.1820513 14.7017237,10.7819139 C14.6987611,11.4391941 14.8809588,12.0390568 15.2453542,12.5739469 L15.2453542,12.5739469 Z M12.5627525,6.21419414 C12.2516833,6.51336996 11.9657959,6.70979853 11.7080528,6.80045788 C11.6191759,6.82765568 11.5051172,6.85334249 11.3673579,6.87600733 C11.2295987,6.89867216 11.0711015,6.91982601 10.8933477,6.93795788 C10.9022354,6.13864469 11.1066523,5.44812271 11.5080797,4.86790293 C11.9095071,4.28768315 12.5671963,3.88424908 13.4841099,3.66666667 C13.5018853,3.75732601 13.5152168,3.82078755 13.5241045,3.85705128 L13.5241045,4.00663919 C13.5241045,4.33301282 13.4485591,4.70169414 13.2974684,5.10966117 C13.1360086,5.51007326 12.8915971,5.87724359 12.5627525,6.21419414 L12.5627525,6.21419414 Z" id="形状" fill="#FFFFFF" fill-rule="nonzero"></path>
                </g>
            </g>
        </g>
    </g>
</svg>