<?xml version="1.0" standalone="no"?><!DOCTYPE svg PUBLIC "-//W3C//DTD SVG 1.1//EN" "http://www.w3.org/Graphics/SVG/1.1/DTD/svg11.dtd"><svg t="1651254287666" class="icon" viewBox="0 0 1024 1024" version="1.1" xmlns="http://www.w3.org/2000/svg" p-id="6837" xmlns:xlink="http://www.w3.org/1999/xlink" width="200" height="200"><defs><style type="text/css">@font-face { font-family: feedback-iconfont; src: url("//at.alicdn.com/t/font_1031158_u69w8yhxdu.woff2?t=1630033759944") format("woff2"), url("//at.alicdn.com/t/font_1031158_u69w8yhxdu.woff?t=1630033759944") format("woff"), url("//at.alicdn.com/t/font_1031158_u69w8yhxdu.ttf?t=1630033759944") format("truetype"); }
</style></defs><path d="M509.013333 954.282667c-3.114667 0-7.850667 0-11.008-1.578667-7.850667-1.578667-14.165333-6.314667-20.48-11.008l-352.597333-360.533333c-114.901333-118.016-114.901333-306.944 0-423.424C172.16 110.506667 230.4 85.333333 293.376 85.333333h1.578667c70.826667 0 147.968 33.066667 215.68 91.306667C576.768 118.4 653.866667 85.333333 724.693333 85.333333h1.578667c62.976 0 121.216 25.173333 168.448 72.405334 114.901333 114.901333 114.901333 305.408 0 423.466666l-354.176 360.490667c-7.893333 9.429333-18.901333 12.586667-31.488 12.586667z m-215.637333-780.8c-39.338667 0-75.52 15.786667-107.050667 47.232-81.834667 81.834667-81.834667 215.637333 0 299.093333l322.730667 329.002667 322.688-329.002667c81.877333-83.456 81.877333-217.258667 0-299.093333-31.488-31.488-66.133333-47.232-107.050667-47.232h-1.578666c-58.24 0-125.909333 34.645333-184.149334 94.464l-1.578666 1.578666c-7.893333 7.850667-20.48 12.586667-31.488 12.586667s-22.016-4.693333-31.488-14.165333C420.906667 208.128 353.28 173.482667 293.376 173.482667z" p-id="6838" fill="#ffffff"></path></svg>