<?xml version="1.0" encoding="UTF-8"?>
<svg width="12px" height="12px" viewBox="0 0 12 12" version="1.1" xmlns="http://www.w3.org/2000/svg" xmlns:xlink="http://www.w3.org/1999/xlink">
    <title>edit_ic_more</title>
    <g id="页面-1" stroke="none" stroke-width="1" fill="none" fill-rule="evenodd">
        <g id="比价详情页备份-4" transform="translate(-208.000000, -1627.000000)">
            <g id="编组-7备份-3" transform="translate(16.000000, 1166.000000)">
                <g id="编组-4备份-2" transform="translate(139.000000, 461.000000)">
                    <g id="编组-16备份-7" transform="translate(53.000000, 0.000000)">
                        <path d="M8.82933485,6.53418932 L4.23314077,11.1303834 C3.94024756,11.4232766 3.46537382,11.4232766 3.1724806,11.1303834 C2.87958738,10.8374902 2.87958738,10.3626164 3.1724806,10.0697232 L7.24181069,5.99994668 L3.1724806,1.93027677 C2.90621404,1.66401021 2.88200799,1.24734652 3.09986245,0.953735031 L3.1724806,0.869616598 C3.46537382,0.576723379 3.94024756,0.576723379 4.23314077,0.869616598 L4.23314077,0.869616598 L8.82933485,5.46581068 C8.96246813,5.59894396 9.03508629,5.76967652 9.04718931,5.9438272 L9.04718931,6.0561728 C9.03508629,6.23032348 8.96246813,6.40105604 8.82933485,6.53418932 Z" id="形状结合" fill="#1985FF"></path>
                        <rect id="edit_ic_more" x="0" y="0" width="12" height="12"></rect>
                    </g>
                </g>
            </g>
        </g>
    </g>
</svg>