<?xml version="1.0" encoding="UTF-8"?>
<svg width="16px" height="16px" viewBox="0 0 16 16" version="1.1" xmlns="http://www.w3.org/2000/svg" xmlns:xlink="http://www.w3.org/1999/xlink">
    <title>二维码</title>
    <g id="页面-1" stroke="none" stroke-width="1" fill="none" fill-rule="evenodd">
        <g id="Download" transform="translate(-813.000000, -534.000000)" fill="#FFFFFF" fill-rule="nonzero">
            <g id="编组-4备份-7" transform="translate(219.000000, 270.000000)">
                <g id="编组-3" transform="translate(507.000000, 257.000000)">
                    <g id="二维码" transform="translate(87.000000, 7.000000)">
                        <path d="M6.20565876,0.00561426905 L6.20565876,0 L1.70694318,0 C0.76705813,0 0.00586562512,0.756062051 0.000502762019,1.69081711 L2.09424466e-05,1.69081711 L2.09424466e-05,5.94031696 C2.09424466e-05,5.9908454 0.0102648696,6.03823151 0.0253898402,6.0836275 C0.162101149,6.88705472 0.861285465,7.49953391 1.7069432,7.49953391 L6.20565876,7.49953391 L6.20565876,7.49467378 C7.00154234,7.44487855 7.64843865,6.85261493 7.77783887,6.08362748 C7.79346661,6.03823149 7.80423426,5.99084538 7.80423426,5.94031694 L7.80423426,1.69081711 L7.80371053,1.69081711 C7.79931131,0.792429104 7.09428229,0.0612961017 6.20565876,0.00561426905 Z M15.9994763,1.64933853 C15.9950561,0.773156229 15.3071631,0.0598296763 14.4404939,0.00536287715 L14.4404939,0 L10.5159197,0 C9.59899446,0 8.85688623,0.737752818 8.85148146,1.64931759 L8.85099964,1.64931759 L8.85099964,5.79505818 C8.85099964,5.84435062 8.86076175,5.8907312 8.87638948,5.93491216 C9.00920433,6.71881513 9.69177631,7.31619023 10.5159407,7.31619023 L14.4405148,7.31619023 L14.4405148,7.31156055 C15.2168323,7.26272896 15.8476191,6.68485716 15.975092,5.93491214 C15.990217,5.89073118 16,5.8443506 16,5.79505816 L16,1.64933853 L15.9994763,1.64933853 Z M6.03869749,8.70746091 L6.03869749,8.70211896 L1.6610236,8.70211896 C0.746549354,8.70211896 0.00538380555,9.43794449 0.000481819572,10.3475401 L0,10.3475401 L0,14.4822826 C0,14.5318264 0.00978304998,14.5782489 0.0248870782,14.6219271 C0.157220105,15.4035676 0.838325685,16 1.66102362,16 L6.03869749,16 L6.03869749,15.9951608 C6.81302484,15.9470415 7.44238708,15.3701752 7.56883352,14.6219271 C7.58444031,14.5782489 7.59424433,14.5318264 7.59424433,14.4822826 L7.59424433,10.3475401 L7.59323878,10.3475401 C7.58883956,9.47353647 6.9033976,8.76169726 6.03869749,8.70746091 Z M12.2922241,13.0727027 C11.9904369,13.0727027 11.7463006,13.3082926 11.7463006,13.5988101 L11.7463006,14.6509621 C11.7463006,14.9422338 11.9904159,15.1775304 12.2922241,15.1775304 C12.5939066,15.1775304 12.8380638,14.9422547 12.8380638,14.6509621 L12.8380638,13.5988101 C12.8380638,13.3082926 12.5939275,13.0727027 12.2922241,13.0727027 Z M14.6182437,12.5461344 C14.3164984,12.5461344 14.0723621,12.781452 14.0723621,13.0721999 L14.0723621,14.6509411 C14.0723621,14.9419405 14.3164775,15.1770904 14.6182437,15.1770904 C14.9204708,15.1770904 15.1646071,14.9419195 15.1646071,14.6509411 L15.1646071,13.0721999 C15.1646071,12.7814729 14.9204499,12.5461344 14.6182437,12.5461344 Z M14.6182437,9.38886153 C14.3164984,9.38886153 14.0723621,9.6244095 14.0723621,9.91545076 L14.0723621,10.9676027 C14.0723621,11.2580784 14.3164775,11.4936682 14.6182437,11.4936682 C14.9204708,11.4936682 15.1646071,11.2580784 15.1646071,10.9676027 L15.1646071,9.91545076 C15.1646071,9.62443045 14.9204499,9.38886153 14.6182437,9.38886153 Z M12.2922241,9.38934335 C11.9904369,9.38934335 11.7463006,9.62491227 11.7463006,9.91566025 L11.7463006,12.0207602 C11.7463006,12.3112987 11.9904159,12.5465953 12.2922241,12.5465953 C12.5939066,12.5465953 12.8380638,12.3113197 12.8380638,12.0207602 L12.8380638,9.91566025 C12.8380638,9.62491227 12.5939275,9.38934335 12.2922241,9.38934335 Z M9.93587074,12.0207602 C9.63515195,12.0207602 9.39049189,12.2548627 9.39049189,12.5461344 L9.39049189,14.6509621 C9.39049189,14.9419614 9.63515193,15.1771113 9.93587074,15.1771113 C10.2386006,15.1771113 10.482716,14.9419405 10.482716,14.6509621 L10.482716,12.5461344 C10.4827369,12.2548627 10.2386006,12.0207602 9.93587074,12.0207602 Z M9.93587074,9.38886153 C9.63515195,9.38886153 9.39049189,9.6244095 9.39049189,9.91545076 L9.39049189,10.4417677 C9.39049189,10.7324947 9.63515193,10.9676027 9.93587074,10.9676027 C10.2386006,10.9676027 10.482716,10.7324947 10.482716,10.4417677 L10.482716,9.91545076 C10.4827369,9.62443045 10.2386006,9.38886153 9.93587074,9.38886153 Z" id="形状"></path>
                    </g>
                </g>
            </g>
        </g>
    </g>
</svg>