<?xml version="1.0" encoding="UTF-8"?>
<svg width="19px" height="24px" viewBox="0 0 19 24" version="1.1" xmlns="http://www.w3.org/2000/svg" xmlns:xlink="http://www.w3.org/1999/xlink">
    <title>Check ous FAQs</title>
    <g id="页面-1" stroke="none" stroke-width="1" fill="none" fill-rule="evenodd">
        <g id="Support" transform="translate(-543.000000, -738.000000)" fill="#008EFF" fill-rule="nonzero">
            <g id="编组" transform="translate(171.000000, 219.000000)">
                <g id="编组-2" transform="translate(58.060877, 54.000000)">
                    <g id="灯泡" transform="translate(313.939123, 465.000000)">
                        <path d="M11.6604897,22.3834324 C12.1073759,22.3834324 12.469673,22.7453243 12.469673,23.1917027 C12.469673,23.6317297 12.1176554,23.9896486 11.6795879,23.9997838 L11.6604627,24 L7.67679136,24 C7.22990515,24 6.86760812,23.6381081 6.86760812,23.1917027 C6.86760812,22.7517027 7.21962569,22.3937838 7.65769319,22.3836486 L7.67679136,22.3834324 L11.6604897,22.3834324 L11.6604897,22.3834324 Z M12.7497884,20.102973 C13.1966746,20.102973 13.5589716,20.4648649 13.5589716,20.9112703 C13.5589716,21.3512703 13.2069541,21.7091892 12.7688865,21.7193243 L12.7497884,21.7195676 L6.5454551,21.7195676 C6.0985689,21.7195676 5.73627187,21.3576757 5.73627187,20.9112703 C5.73627187,20.4712432 6.08828943,20.1133243 6.52635694,20.1031892 L6.5454551,20.102973 L12.7497884,20.102973 Z M9.64760822,1.13686838e-13 C14.7869619,1.13686838e-13 18.953229,4.16167568 18.953229,9.29532432 C18.953229,12.5418108 17.287063,15.3995946 14.7622912,17.0619459 L14.7026432,17.3425946 C14.6615524,17.5340541 14.6071795,17.7847297 14.5395244,18.0946486 C14.3791918,18.8293243 13.7333709,19.3554595 12.9828347,19.3668649 L6.29972179,19.3668649 C5.52822091,19.3668649 4.86395108,18.8228649 4.71273474,18.0671351 L4.63815452,17.6988108 C4.5483174,17.2612432 4.49678482,17.0380541 4.48355678,17.0292162 C1.98645837,15.3622432 0.341987466,12.5206216 0.341987466,9.29532432 C0.341987466,4.16167568 4.50825454,1.13686838e-13 9.64760822,1.13686838e-13 Z M7.95460742,3.61994595 C5.21810569,4.13018919 3.86654543,5.98864865 3.7044545,8.92005405 C3.67981084,9.36578378 4.02154894,9.74708108 4.46778591,9.77167568 C4.91399584,9.79632432 5.29571565,9.45491892 5.32035931,9.00921622 C5.44425391,6.76848649 6.31584432,5.57002703 8.25157575,5.20908108 C8.69088761,5.12716216 8.98052506,4.70502703 8.8985328,4.26618919 C8.81651349,3.82735135 8.39391928,3.53802703 7.95460742,3.61994595 Z" id="形状"></path>
                    </g>
                </g>
            </g>
        </g>
    </g>
</svg>