<svg xmlns="http://www.w3.org/2000/svg" enable-background="new 0 0 32 32"
    viewBox="0 0 32 32" width="256" height="256">
    <path fill="#e3f8fa"
        d="M26,32H6c-3.314,0-6-2.686-6-6V6c0-3.314,2.686-6,6-6h20c3.314,0,6,2.686,6,6v20C32,29.314,29.314,32,26,32z"
    ></path>
    <path fill="#e3f8fa"
        d="M26,32H6c-3.314,0-6-2.686-6-6V6c0-3.314,2.686-6,6-6h20c3.314,0,6,2.686,6,6v20C32,29.314,29.314,32,26,32z"
    ></path>
    <polygon fill="#8ce1eb" points="14.895 13.257 14.899 13.254 14.901 13.253"
    ></polygon>
    <polygon fill="#8ce1eb" points="22.374 23.656 22.369 23.659 22.368 23.66"
    ></polygon>
    <polygon fill="#8ce1eb" points="14.451 15.791 14.447 15.786 14.447 15.786"
    ></polygon>
    <path fill="#26c6da"
        d="M11.018 8c-1.015 0-1.84.827-1.851 1.853v.001V22.14C9.17 23.168 9.995 24 11.011 24c.009 0 .018 0 .026 0 0 0 .001 0 .001 0 .009 0 .02 0 .032 0 1.015 0 1.838-.828 1.845-1.853V9.854c-.018-1.027-.846-1.853-1.865-1.853-.004 0-.009 0-.014 0L11.038 8C11.032 8 11.024 8 11.018 8zM19.609 12.906c.009 0 .018 0 .026 0 0 0 .001 0 .001 0 .006 0 .012 0 .018 0 1.341 0 2.429-1.092 2.444-2.445V10.46c-.015-1.355-1.104-2.447-2.444-2.447-.007 0-.013 0-.02 0 0 0-.001 0-.001 0-.008 0-.016 0-.025 0-1.341 0-2.429 1.092-2.444 2.445v.001C17.179 11.814 18.268 12.906 19.609 12.906z"
    ></path>
    <path fill="#8ce1eb"
        d="M13.884,14.738c0,0.392,0.125,0.754,0.336,1.048l5.271,7.433c0.341,0.472,0.885,0.775,1.5,0.775c0.393,0,0.758-0.125,1.058-0.336c0.475-0.325,0.784-0.869,0.784-1.485c0-0.371-0.111-0.715-0.302-1l0.004,0.006l-0.04-0.06l-5.258-7.426h-0.007c-0.339-0.475-0.884-0.781-1.5-0.781c-0.396,0-0.763,0.126-1.063,0.342C14.192,13.58,13.884,14.122,13.884,14.738z"
    ></path>
</svg>