<svg xmlns="http://www.w3.org/2000/svg" viewBox="0 0 24 24" width="256" height="256">
    <path
        d="m10.342 7.886.007-.004.002-.002zM21.56 23.484l-.007.004-.002.002zM9.676 11.687l-.005-.008z"
        fill="#000000"></path>
    <path fill="#6c02b0"
        d="M4.527 0C3.004 0 1.767 1.241 1.75 2.779V21.21C1.756 22.752 2.992 24 4.517 24h.089c1.522 0 2.756-1.242 2.767-2.779V2.781C7.345 1.24 6.104.001 4.576.001h-.021L4.557 0h-.03zm12.887 7.36h.07c2.011 0 3.644-1.638 3.666-3.668V3.69C21.127 1.658 19.495.02 17.484.02h-.07c-2.011 0-3.644 1.638-3.666 3.668v.002c.021 2.032 1.654 3.67 3.666 3.67zm-8.587 2.747c0 .588.187 1.131.504 1.572l7.906 11.149a2.752 2.752 0 0 0 3.837.659 2.691 2.691 0 0 0 1.177-2.227c0-.556-.167-1.072-.454-1.5l.006.009-.059-.09L13.857 8.54h-.011a2.755 2.755 0 0 0-2.25-1.171c-.594 0-1.144.19-1.595.513a2.685 2.685 0 0 0-1.174 2.225z"
    ></path>
</svg>