<?xml version="1.0" standalone="no"?><!DOCTYPE svg PUBLIC "-//W3C//DTD SVG 1.1//EN" "http://www.w3.org/Graphics/SVG/1.1/DTD/svg11.dtd"><svg t="1633699236189" class="icon" viewBox="0 0 1024 1024" version="1.1" xmlns="http://www.w3.org/2000/svg" p-id="25454" xmlns:xlink="http://www.w3.org/1999/xlink" width="200" height="200"><defs><style type="text/css"></style></defs><path d="M864 128H160c-52.9 0-96 43.1-96 96v576c0 52.9 43.1 96 96 96h704c52.9 0 96-43.1 96-96V224c0-52.9-43.1-96-96-96zM231.6 274.7c11.4-13.5 31.6-15.2 45.1-3.8L512 470.1 747.3 271c13.5-11.4 33.7-9.7 45.1 3.8 11.4 13.5 9.7 33.7-3.8 45.1L532.7 536.4c-0.3 0.3-0.6 0.5-0.9 0.7-0.1 0.1-0.2 0.2-0.4 0.3-0.3 0.2-0.6 0.4-0.8 0.6-0.2 0.1-0.3 0.2-0.5 0.3-0.3 0.2-0.5 0.4-0.8 0.5-0.2 0.1-0.4 0.2-0.6 0.4-0.2 0.2-0.5 0.3-0.8 0.5-0.3 0.2-0.5 0.3-0.8 0.5-0.2 0.1-0.4 0.2-0.5 0.3-0.5 0.2-0.9 0.5-1.4 0.7-0.1 0-0.2 0.1-0.3 0.1-0.4 0.2-0.8 0.3-1.2 0.5-0.1 0-0.2 0.1-0.3 0.1-0.4 0.2-0.8 0.3-1.2 0.5-0.1 0-0.2 0-0.3 0.1-1.6 0.5-3.2 0.9-4.8 1.2h-0.2c-0.5 0.1-0.9 0.1-1.4 0.2h-0.3c-0.4 0-0.9 0.1-1.3 0.1h-3.8c-0.4 0-0.9-0.1-1.3-0.1h-0.3c-0.5 0-0.9-0.1-1.4-0.2h-0.2c-1.6-0.3-3.2-0.7-4.8-1.2-0.1 0-0.2-0.1-0.3-0.1-0.4-0.1-0.8-0.3-1.2-0.5-0.1 0-0.2-0.1-0.3-0.1-0.4-0.2-0.8-0.3-1.2-0.5-0.1 0-0.2-0.1-0.3-0.1-0.5-0.2-0.9-0.5-1.4-0.7l-0.6-0.3c-0.3-0.1-0.5-0.3-0.8-0.4-0.3-0.1-0.5-0.3-0.8-0.5-0.2-0.1-0.4-0.2-0.5-0.3-0.3-0.2-0.5-0.4-0.8-0.5-0.2-0.1-0.3-0.2-0.5-0.3-0.3-0.2-0.6-0.4-0.8-0.6l-0.3-0.3c-0.3-0.2-0.6-0.5-0.9-0.8L235.3 319.8c-13.5-11.4-15.1-31.6-3.7-45.1z" p-id="25455" fill="#71758B"></path></svg>