<?xml version="1.0" encoding="UTF-8"?>
<svg width="28px" height="28px" viewBox="0 0 28 28" version="1.1" xmlns="http://www.w3.org/2000/svg" xmlns:xlink="http://www.w3.org/1999/xlink">
    <title>个人</title>
    <g id="页面-1" stroke="none" stroke-width="1" fill="none" fill-rule="evenodd" opacity="0.55">
        <g id="首页3" transform="translate(-1280.000000, -21.000000)" fill="#212B4D" fill-rule="nonzero">
            <g id="个人中心" transform="translate(1280.000000, 21.000000)">
                <path d="M16.30175,14.0090938 C18.0225938,13.13525 19.20525,11.3489063 19.20525,9.29040625 C19.20525,6.3735625 16.8322188,4.00053125 13.9153438,4.00053125 C10.9984688,4.00053125 8.62546875,6.3735625 8.62546875,9.29040625 C8.62546875,11.3489063 9.808125,13.1352187 11.5289375,14.0090938 C8.5398125,15.0095938 6.379625,17.8358125 6.379625,21.1573438 C6.379625,21.5109375 6.66628125,21.7976875 7.01996875,21.7976875 C7.37365625,21.7976875 7.66034375,21.5109688 7.66034375,21.1573438 C7.66034375,17.7083125 10.4663125,14.9023125 13.9153438,14.9023125 C17.364375,14.9023125 20.1703438,17.7083125 20.1703438,21.1573125 C20.1703438,21.5109375 20.4570313,21.7976875 20.8107188,21.7976875 C21.1644063,21.7976875 21.4510938,21.5109688 21.4510938,21.1573438 C21.4510938,17.8358125 19.290875,15.009625 16.3017188,14.0090937 L16.30175,14.0090938 Z M9.9061875,9.29040625 C9.9061875,7.07971875 11.7047188,5.28121875 13.9153438,5.28121875 C16.1260313,5.28121875 17.9245313,7.07975 17.9245313,9.29040625 C17.9245313,11.5010625 16.126,13.2995625 13.9153438,13.2995625 C11.7047188,13.2995625 9.9061875,11.5010625 9.9061875,9.29040625 Z M23.830625,4.0886875 C21.194,1.452125 17.6884687,0 13.9596875,0 C10.2309062,0 6.7253125,1.4520625 4.08871875,4.0886875 C1.4520625,6.725375 0,10.230875 0,13.9596562 C0,17.6884375 1.45203125,21.1940312 4.0886875,23.8306563 C6.72534375,26.4672813 10.2309062,27.919375 13.9596875,27.919375 C17.6884687,27.919375 21.194,26.4673437 23.8306562,23.8306875 C26.4673125,21.1940313 27.919375,17.6884375 27.919375,13.9596875 C27.919375,10.2309375 26.4673437,6.725375 23.8306875,4.08871875 L23.830625,4.0886875 Z M13.9596875,26.6386875 C6.9685,26.6386875 1.28071875,20.9509062 1.28071875,13.9596562 C1.28071875,6.96846875 6.9685,1.2806875 13.9596875,1.2806875 C20.950875,1.2806875 26.6386563,6.9684375 26.6386563,13.9596875 C26.6386563,20.9509375 20.950875,26.6386875 13.9596875,26.6386875 L13.9596875,26.6386875 Z" id="形状"></path>
            </g>
        </g>
    </g>
</svg>