<?xml version="1.0" encoding="UTF-8"?>
<svg width="120px" height="37px" viewBox="0 0 120 37" version="1.1" xmlns="http://www.w3.org/2000/svg" xmlns:xlink="http://www.w3.org/1999/xlink">
    <title>tutuapp</title>
    <defs>
        <circle id="path-1" cx="18.5" cy="18.5" r="18.5"></circle>
        <filter x="-80.6%" y="-52.3%" width="261.3%" height="206.3%" filterUnits="objectBoundingBox" id="filter-3">
            <feOffset dx="0" dy="2" in="SourceAlpha" result="shadowOffsetOuter1"></feOffset>
            <feGaussianBlur stdDeviation="4" in="shadowOffsetOuter1" result="shadowBlurOuter1"></feGaussianBlur>
            <feColorMatrix values="0 0 0 0 0   0 0 0 0 0   0 0 0 0 0  0 0 0 1 0" type="matrix" in="shadowBlurOuter1" result="shadowMatrixOuter1"></feColorMatrix>
            <feMerge>
                <feMergeNode in="shadowMatrixOuter1"></feMergeNode>
                <feMergeNode in="SourceGraphic"></feMergeNode>
            </feMerge>
        </filter>
    </defs>
    <g id="页面-1" stroke="none" stroke-width="1" fill="none" fill-rule="evenodd">
        <g id="首页3" transform="translate(-115.000000, -1462.000000)">
            <g id="编组-6" transform="translate(115.000000, 1462.000000)">
                <g id="Group-4-Copy-4">
                    <mask id="mask-2" fill="white">
                        <use xlink:href="#path-1"></use>
                    </mask>
                    <use id="Mask" fill="#212B4D" xlink:href="#path-1"></use>
                    <g id="Group-4" mask="url(#mask-2)">
                        <g transform="translate(6.098901, -0.406593)">
                            <g id="Group-3" stroke-width="1" fill="none" transform="translate(0.000000, 3.937732)">
                                <g id="Group-4-Copy" filter="url(#filter-3)" transform="translate(12.430782, 19.109890) scale(-1, 1) translate(-12.430782, -19.109890) translate(0.029683, 0.000000)">
                                    <path d="M18.4607344,11.9668845 C16.0893055,12.4157489 14.6912279,13.0664734 14.2665018,13.9190578 L13.1528435,13.1028741 L15.4411439,10.9382479 L17.7708652,11.2555693 L18.4607344,11.9668845 Z" id="Path-3" fill="#E797A2"></path>
                                    <path d="M7.08096544,34.9068909 C7.93449933,36.8514339 8.62743365,37.8326519 9.1597684,37.8505447 C9.69210315,37.8684376 10.0855044,37.5182715 10.3399721,36.8000464 C10.5960648,35.8195376 10.6600879,34.671392 10.5320416,33.3556097 C10.4039953,32.0398273 9.25363654,32.5569211 7.08096544,34.9068909 Z" id="Path-12" stroke="#6D3856" stroke-width="2"></path>
                                    <path d="M2.22346297,34.9068909 C3.07699686,36.8514339 3.76993118,37.8326519 4.30226593,37.8505447 C4.83460069,37.8684376 5.22800192,37.5182715 5.48246963,36.8000464 C5.7385623,35.8195376 5.80258546,34.671392 5.67453913,33.3556097 C5.5464928,32.0398273 4.39613408,32.5569211 2.22346297,34.9068909 Z" id="Path-12-Copy" stroke="#6D3856" stroke-width="2" transform="translate(3.981013, 35.249189) scale(-1, 1) translate(-3.981013, -35.249189) "></path>
                                    <path d="M12.2420618,17.7371916 C12.5377453,17.5370922 12.8826176,17.4703923 13.2766787,17.5370922 C13.6707398,17.603792 13.8159115,17.8539024 13.7121938,18.2874234" id="Path-7" stroke="#979797"></path>
                                    <path d="M6.32198068,16.1572526 C6.68614864,15.9069204 7.03985676,15.8003836 7.38310502,15.8376424 C7.72635328,15.8749011 7.89797741,16.0937963 7.89797741,16.4943278" id="Path-9" stroke="#979797"></path>
                                    <path d="M21.1186643,7.10712442 C21.6920336,7.21464403 22.1841965,7.35731792 22.5951531,7.53514611 C23.8419056,7.95689755 24.7458987,9.2093609 24.7458987,10.6887469 C24.7458987,12.5148578 23.3685103,13.9952132 21.6694155,13.9952132 C20.6807182,13.9952132 19.8009517,13.4939596 19.2381196,12.715005 C18.2885489,11.8170468 15.6344594,10.2792076 13.2659515,13.1829548 C12.7716356,12.9119083 12.4852942,12.7778295 12.4069274,12.7807184 C12.3285605,12.7836074 12.2230064,12.7099291 12.0902649,12.5596835 C14.4094501,8.23085845 17.4189165,6.41333875 21.1186643,7.10712442 Z" id="Combined-Shape" fill="#FFFFFF"></path>
                                    <path d="M9.53015997,0 C13.3181257,0.0489643238 16.0766183,3.61548458 17.8056379,10.6995608 L13.9860424,11.031354 C13.3428627,8.84097802 11.4264845,7.04666628 8.23690775,5.64841879 L8.23766751,5.645 L8.12503583,5.59521046 C7.17443496,5.14969647 6.57608524,4.27893074 6.50898044,3.18283217 L6.50266751,2.97472188 C6.50266751,1.33235592 7.82770201,0.000955252821 9.4622149,0.000955252821 C9.48469281,0.000955252821 9.50711219,0.00120704592 9.5294704,0.00170797819 L9.53015997,0 Z" id="Combined-Shape-Copy" fill="#FFFFFF" transform="translate(12.154153, 5.515677) scale(-1, 1) translate(-12.154153, -5.515677) "></path>
                                    <path d="M16.6690643,15.2174495 C18.3993783,18.6066873 18.3090737,21.2246703 16.3981505,23.0713984 C15.5659897,23.8437592 14.229242,24.4249717 12.3879073,24.8150361 L11.3257562,32.8696606 C10.2081465,35.0166857 8.60889193,36.0471371 6.52799239,35.9610147 C4.44709284,35.8748924 2.69289228,35.1862155 1.2653907,33.8949839 L1.2653907,33.8949839 C1.07474765,33.1886601 1.07474765,32.4269074 1.2653907,31.6097257 C1.45603374,30.792544 2.11954043,27.9464349 3.25591076,23.0713984 C0.333413937,21.8180148 -0.605655192,19.254325 0.438703376,15.3803291 C1.44605201,12.8675881 2.88380876,11.3948406 4.75197364,10.9620865 C7.55422094,10.3129554 14.0735932,10.1335928 16.6690643,15.2174495 Z" id="Path-5" fill="#FFFFFF"></path>
                                </g>
                                <path d="M9.86740923,25.3020215 L9.90173151,25.3038486 C10.0215866,25.2970258 10.1520891,25.3093114 10.293239,25.3407054 C10.8910267,25.4736631 11.9257388,25.4736631 13.3973754,25.3407054 L13.3973754,25.3407054 L13.9790347,25.9700358 C14.7223234,27.4240819 14.6629814,28.1573554 13.8010086,28.1698564 C12.5080494,28.1886078 11.9185749,28.1698564 10.293239,27.6048827 C9.81173493,27.4375099 9.46386608,27.2369033 9.2496324,27.0030628 C9.04140269,26.8261352 8.90868261,26.5613983 8.90868261,26.2655091 C8.90868261,25.7333896 9.33791914,25.3020215 9.86740923,25.3020215 Z" id="Combined-Shape" fill="#FFFFFF"></path>
                            </g>
                            <path d="M92.1052384,1.71745673 C92.4734656,1.71745673 92.7719728,2.01596386 92.7719728,2.38419108 C92.7719728,2.49114843 92.7467876,2.59222348 92.7020242,2.68180942 C92.7482643,2.76349164 92.7719728,2.85152344 92.7719728,2.94488078 C92.7719728,4.58144619 91.1410071,6.19691965 89.1291089,6.19691965 C87.1172108,6.19691965 85.4862451,4.58144619 85.4862451,2.94488078 L85.4889735,3.05045673 L84.3534148,3.05126176 C84.287151,4.59622726 82.7886233,6.09149415 80.9127111,6.19159379 L80.7128374,6.19691965 C78.7009392,6.19691965 77.0699735,4.58144619 77.0699735,2.94488078 C77.0699735,2.85152344 77.093682,2.76349164 77.138394,2.68078538 C77.0951587,2.59222348 77.0699735,2.49114843 77.0699735,2.38419108 C77.0699735,2.01596386 77.3684807,1.71745673 77.7367079,1.71745673 L92.1052384,1.71745673 Z" id="Combined-Shape" fill="#333333" transform="translate(84.920973, 3.957188) rotate(-13.000000) translate(-84.920973, -3.957188) "></path>
                        </g>
                    </g>
                </g>
                <g id="编组-5" transform="translate(50.000000, 10.000000)" fill="#1C2543" stroke="#202A4C" stroke-width="0.2">
                    <polygon id="Fill-1" points="0.265317894 0 0 1.45658263 4.47468381 1.45658263 2.37282089 13 4.15884037 13 6.2604683 1.45658263 10.7349171 1.45658263 11 0"></polygon>
                    <path d="M16.8787039,12.8125 L17.1424401,11.4147727 L17.1057404,11.4147727 C16.6749181,11.9602273 16.1795864,12.3607955 15.6211131,12.6164773 C15.0621838,12.8721591 14.4362378,13 13.743275,13 C13.1232556,13 12.6206296,12.9232955 12.2365367,12.7698864 C11.8519879,12.6164773 11.5590743,12.3978693 11.357568,12.1136364 C11.1556058,11.8298295 11.040036,11.4914773 11.0108586,11.0994318 C10.9814533,10.7073864 11.0117704,10.2727273 11.10181,9.79545455 L12.1950501,4 L13.7450985,4 L12.6197178,9.96590909 C12.5166851,10.5113636 12.605357,10.9434659 12.8859614,11.2613636 C13.1661099,11.5796875 13.6042265,11.7386364 14.2000834,11.7386364 C14.6742158,11.7386364 15.0972879,11.6704545 15.4695275,11.5340909 C15.841767,11.3977273 16.1665934,11.2046875 16.4449183,10.9545455 C16.7230152,10.7046165 16.9516473,10.4118608 17.1303588,10.0767045 C17.3090703,9.74176136 17.4358095,9.37507102 17.5108045,8.97727273 L18.4499515,4 L20,4 L18.337573,12.8125 L16.8787039,12.8125 Z" id="Fill-2"></path>
                    <path d="M26,3.76768541 L25.7256461,5.10699604 L23.5889014,5.10699604 L22.414729,10.8394687 C22.3781658,11.0178203 22.365978,11.1606801 22.3786844,11.2680481 C22.3913908,11.3749698 22.4398824,11.4584535 22.524678,11.5180528 C22.608955,11.5776521 22.7360187,11.6160457 22.9053505,11.6339032 C23.074423,11.6517606 23.2974328,11.6606894 23.5741205,11.6606894 L24.3831792,11.6606894 L24.1088253,13 L22.7603942,13 C22.3040021,13 21.9184026,12.9732138 21.6048924,12.9196414 C21.2906042,12.8662922 21.0478866,12.7678528 20.8767396,12.6252162 C20.7055925,12.4821332 20.5982367,12.2798973 20.5551906,12.0178389 C20.5118852,11.7562269 20.5341862,11.4106847 20.6220935,10.9821053 L21.8255683,5.10699604 L20,5.10699604 L20.2743539,3.76768541 L22.0999222,3.76768541 L22.6667819,1 L24.430115,1 L23.8632553,3.76768541 L26,3.76768541 Z" id="Fill-4"></path>
                    <path d="M31.8787039,12.8125 L32.1424401,11.4147727 L32.1057404,11.4147727 C31.6749181,11.9602273 31.1795864,12.3607955 30.6211131,12.6164773 C30.0621838,12.8721591 29.4362378,13 28.743275,13 C28.1232556,13 27.6206296,12.9232955 27.2365367,12.7698864 C26.8519879,12.6164773 26.5590743,12.3978693 26.357568,12.1136364 C26.1556058,11.8298295 26.040036,11.4914773 26.0108586,11.0994318 C25.9814533,10.7073864 26.0117704,10.2727273 26.10181,9.79545455 L27.1950501,4 L28.7450985,4 L27.6197178,9.96590909 C27.5166851,10.5113636 27.605357,10.9434659 27.8859614,11.2613636 C28.1661099,11.5796875 28.6042265,11.7386364 29.2000834,11.7386364 C29.6742158,11.7386364 30.0972879,11.6704545 30.4695275,11.5340909 C30.841767,11.3977273 31.1665934,11.2046875 31.4449183,10.9545455 C31.7230152,10.7046165 31.9516473,10.4118608 32.1303588,10.0767045 C32.3090703,9.74176136 32.4358095,9.37507102 32.5108045,8.97727273 L33.4499515,4 L35,4 L33.337573,12.8125 L31.8787039,12.8125 Z" id="Fill-6"></path>
                    <path d="M44.0818527,7.62894557 L42.9890485,1.56579892 L42.9527955,1.56579892 L39.6952286,7.62894557 L44.0818527,7.62894557 Z M44.2245992,0 L47,13 L45.0964861,13 L44.3698382,9.08527512 L38.8956213,9.08527512 L36.7585015,13 L35,13 L42.3213119,0 L44.2245992,0 Z" id="Fill-8"></path>
                    <path d="M56.2451311,7.50091253 C56.2016775,7.0890668 56.0861193,6.72198691 55.8984566,6.39967287 C55.710794,6.07735882 55.4405216,5.82062672 55.0883557,5.62970041 C54.7354735,5.4387741 54.2983102,5.34297521 53.7763884,5.34297521 C53.2289196,5.34297521 52.7451989,5.44459366 52.3247486,5.64760675 C51.9047758,5.85061983 51.5425821,6.11608127 51.2391226,6.44421488 C50.9351855,6.77279614 50.6899825,7.14569559 50.5032749,7.56336088 C50.3163285,7.98147383 50.1826248,8.40518251 50.1016863,8.83493457 C50.0164503,9.28863636 49.9913808,9.7273416 50.0260005,10.1510503 C50.0610977,10.574759 50.1723583,10.9476584 50.3600209,11.2701963 C50.5476836,11.5922865 50.8203436,11.8519284 51.1780009,12.0488981 C51.5356582,12.2458678 51.9945483,12.3445764 52.5551487,12.3445764 C53.1152715,12.3445764 53.6023349,12.2431818 54.0161,12.0399449 C54.4296263,11.8371556 54.782986,11.5687844 55.0749853,11.2343836 C55.3669846,10.9004304 55.6045473,10.5179063 55.7871961,10.0883781 C55.9698448,9.65862603 56.104026,9.21701102 56.1892621,8.76330923 C56.2702006,8.33355716 56.2885848,7.91275826 56.2451311,7.50091253 L56.2451311,7.50091253 Z M51.0280618,4.21487603 L50.792409,5.46854339 L50.8306101,5.46854339 C51.1944751,4.95530303 51.684881,4.58217975 52.3015892,4.34939738 C52.9182974,4.11661501 53.5705803,4 54.2581991,4 C55.0222201,4 55.6625652,4.13161157 56.1801894,4.39416322 C56.6973361,4.65671488 57.1017897,5.01193182 57.3930726,5.45959022 C57.6843556,5.90724862 57.8708245,6.42384642 57.9520017,7.00848829 C58.0329402,7.59335399 58.0114521,8.21448003 57.888015,8.87074725 C57.7645778,9.52746212 57.5554271,10.1481405 57.2610403,10.7327824 C56.9659372,11.3180957 56.5898956,11.8282025 56.1324381,12.2637741 C55.6747417,12.7000172 55.138972,13.0429236 54.5253677,13.2936123 C53.9112859,13.544301 53.2289196,13.6696453 52.4777915,13.6696453 C52.2356924,13.6696453 51.9694788,13.6454718 51.6796284,13.5977961 C51.3890617,13.5501205 51.1075677,13.4726756 50.8349077,13.3650138 C50.562009,13.2577996 50.3127471,13.1116391 50.0866447,12.9263085 C49.8603035,12.7414256 49.6838624,12.5117769 49.5575602,12.2371384 L49.5191204,12.2371384 L48.6233058,17 L47,17 L49.4045172,4.21487603 L51.0280618,4.21487603 Z" id="Fill-11"></path>
                    <path d="M68.2451311,7.50091253 C68.2016775,7.0890668 68.0861193,6.72198691 67.8984566,6.39967287 C67.710794,6.07735882 67.4405216,5.82062672 67.0883557,5.62970041 C66.7354735,5.4387741 66.2983102,5.34297521 65.7763884,5.34297521 C65.2289196,5.34297521 64.7451989,5.44459366 64.3247486,5.64760675 C63.9047758,5.85061983 63.5425821,6.11608127 63.2391226,6.44421488 C62.9351855,6.77279614 62.6899825,7.14569559 62.5032749,7.56336088 C62.3163285,7.98147383 62.1826248,8.40518251 62.1016863,8.83493457 C62.0164503,9.28863636 61.9913808,9.7273416 62.0260005,10.1510503 C62.0610977,10.574759 62.1723583,10.9476584 62.3600209,11.2701963 C62.5476836,11.5922865 62.8203436,11.8519284 63.1782396,12.0488981 C63.5356582,12.2458678 63.9945483,12.3445764 64.5551487,12.3445764 C65.1152715,12.3445764 65.6023349,12.2431818 66.0161,12.0399449 C66.4298651,11.8371556 66.782986,11.5687844 67.0749853,11.2343836 C67.3669846,10.9004304 67.6045473,10.5179063 67.7871961,10.0883781 C67.9698448,9.65862603 68.104026,9.21701102 68.1892621,8.76330923 C68.2702006,8.33355716 68.2885848,7.91275826 68.2451311,7.50091253 L68.2451311,7.50091253 Z M63.0280618,4.21487603 L62.792409,5.46854339 L62.8306101,5.46854339 C63.1944751,4.95530303 63.684881,4.58217975 64.3015892,4.34939738 C64.9182974,4.11661501 65.5705803,4 66.2581991,4 C67.0222201,4 67.6625652,4.13161157 68.1801894,4.39416322 C68.6973361,4.65671488 69.1017897,5.01193182 69.3930726,5.45959022 C69.6843556,5.90724862 69.8708245,6.42384642 69.9520017,7.00848829 C70.0329402,7.59335399 70.0114521,8.21448003 69.888015,8.87074725 C69.7645778,9.52746212 69.5554271,10.1481405 69.2610403,10.7327824 C68.9659372,11.3180957 68.5898956,11.8282025 68.1324381,12.2637741 C67.6747417,12.7000172 67.138972,13.0429236 66.5253677,13.2936123 C65.9115246,13.544301 65.2289196,13.6696453 64.4777915,13.6696453 C64.2356924,13.6696453 63.9694788,13.6454718 63.6796284,13.5977961 C63.3890617,13.5501205 63.1075677,13.4726756 62.8349077,13.3650138 C62.562009,13.2577996 62.3127471,13.1116391 62.0866447,12.9263085 C61.8603035,12.7414256 61.6838624,12.5117769 61.5575602,12.2371384 L61.5191204,12.2371384 L60.6233058,17 L59,17 L61.4045172,4.21487603 L63.0280618,4.21487603 Z" id="Fill-13"></path>
                </g>
            </g>
        </g>
    </g>
</svg>