<?xml version="1.0" encoding="UTF-8"?>
<svg width="500px" height="500px" viewBox="0 0 37 37" version="1.1" xmlns="http://www.w3.org/2000/svg" xmlns:xlink="http://www.w3.org/1999/xlink">
    <title>tutuapp</title>
    <defs>
        <circle id="path-1" cx="18.5" cy="18.5" r="18.5"></circle>
        <filter x="-80.6%" y="-52.3%" width="261.3%" height="206.3%" filterUnits="objectBoundingBox" id="filter-3">
            <feOffset dx="0" dy="2" in="SourceAlpha" result="shadowOffsetOuter1"></feOffset>
            <feGaussianBlur stdDeviation="4" in="shadowOffsetOuter1" result="shadowBlurOuter1"></feGaussianBlur>
            <feColorMatrix values="0 0 0 0 0   0 0 0 0 0   0 0 0 0 0  0 0 0 1 0" type="matrix" in="shadowBlurOuter1" result="shadowMatrixOuter1"></feColorMatrix>
            <feMerge>
                <feMergeNode in="shadowMatrixOuter1"></feMergeNode>
                <feMergeNode in="SourceGraphic"></feMergeNode>
            </feMerge>
        </filter>
    </defs>
    <g id="页面-1" stroke="none" stroke-width="1" fill="none" fill-rule="evenodd">
        <g id="首页3" transform="translate(-115.000000, -1462.000000)">
            <g id="编组-6" transform="translate(115.000000, 1462.000000)">
                <g id="Group-4-Copy-4">
                    <mask id="mask-2" fill="white">
                        <use xlink:href="#path-1"></use>
                    </mask>
                    <use id="Mask" fill="#212B4D" xlink:href="#path-1"></use>
                    <g id="Group-4" mask="url(#mask-2)">
                        <g transform="translate(6.098901, -0.406593)">
                            <g id="Group-3" stroke-width="1" fill="none" transform="translate(0.000000, 3.937732)">
                                <g id="Group-4-Copy" filter="url(#filter-3)" transform="translate(12.430782, 19.109890) scale(-1, 1) translate(-12.430782, -19.109890) translate(0.029683, 0.000000)">
                                    <path d="M18.4607344,11.9668845 C16.0893055,12.4157489 14.6912279,13.0664734 14.2665018,13.9190578 L13.1528435,13.1028741 L15.4411439,10.9382479 L17.7708652,11.2555693 L18.4607344,11.9668845 Z" id="Path-3" fill="#E797A2"></path>
                                    <path d="M7.08096544,34.9068909 C7.93449933,36.8514339 8.62743365,37.8326519 9.1597684,37.8505447 C9.69210315,37.8684376 10.0855044,37.5182715 10.3399721,36.8000464 C10.5960648,35.8195376 10.6600879,34.671392 10.5320416,33.3556097 C10.4039953,32.0398273 9.25363654,32.5569211 7.08096544,34.9068909 Z" id="Path-12" stroke="#6D3856" stroke-width="2"></path>
                                    <path d="M2.22346297,34.9068909 C3.07699686,36.8514339 3.76993118,37.8326519 4.30226593,37.8505447 C4.83460069,37.8684376 5.22800192,37.5182715 5.48246963,36.8000464 C5.7385623,35.8195376 5.80258546,34.671392 5.67453913,33.3556097 C5.5464928,32.0398273 4.39613408,32.5569211 2.22346297,34.9068909 Z" id="Path-12-Copy" stroke="#6D3856" stroke-width="2" transform="translate(3.981013, 35.249189) scale(-1, 1) translate(-3.981013, -35.249189) "></path>
                                    <path d="M12.2420618,17.7371916 C12.5377453,17.5370922 12.8826176,17.4703923 13.2766787,17.5370922 C13.6707398,17.603792 13.8159115,17.8539024 13.7121938,18.2874234" id="Path-7" stroke="#979797"></path>
                                    <path d="M6.32198068,16.1572526 C6.68614864,15.9069204 7.03985676,15.8003836 7.38310502,15.8376424 C7.72635328,15.8749011 7.89797741,16.0937963 7.89797741,16.4943278" id="Path-9" stroke="#979797"></path>
                                    <path d="M21.1186643,7.10712442 C21.6920336,7.21464403 22.1841965,7.35731792 22.5951531,7.53514611 C23.8419056,7.95689755 24.7458987,9.2093609 24.7458987,10.6887469 C24.7458987,12.5148578 23.3685103,13.9952132 21.6694155,13.9952132 C20.6807182,13.9952132 19.8009517,13.4939596 19.2381196,12.715005 C18.2885489,11.8170468 15.6344594,10.2792076 13.2659515,13.1829548 C12.7716356,12.9119083 12.4852942,12.7778295 12.4069274,12.7807184 C12.3285605,12.7836074 12.2230064,12.7099291 12.0902649,12.5596835 C14.4094501,8.23085845 17.4189165,6.41333875 21.1186643,7.10712442 Z" id="Combined-Shape" fill="#FFFFFF"></path>
                                    <path d="M9.53015997,0 C13.3181257,0.0489643238 16.0766183,3.61548458 17.8056379,10.6995608 L13.9860424,11.031354 C13.3428627,8.84097802 11.4264845,7.04666628 8.23690775,5.64841879 L8.23766751,5.645 L8.12503583,5.59521046 C7.17443496,5.14969647 6.57608524,4.27893074 6.50898044,3.18283217 L6.50266751,2.97472188 C6.50266751,1.33235592 7.82770201,0.000955252821 9.4622149,0.000955252821 C9.48469281,0.000955252821 9.50711219,0.00120704592 9.5294704,0.00170797819 L9.53015997,0 Z" id="Combined-Shape-Copy" fill="#FFFFFF" transform="translate(12.154153, 5.515677) scale(-1, 1) translate(-12.154153, -5.515677) "></path>
                                    <path d="M16.6690643,15.2174495 C18.3993783,18.6066873 18.3090737,21.2246703 16.3981505,23.0713984 C15.5659897,23.8437592 14.229242,24.4249717 12.3879073,24.8150361 L11.3257562,32.8696606 C10.2081465,35.0166857 8.60889193,36.0471371 6.52799239,35.9610147 C4.44709284,35.8748924 2.69289228,35.1862155 1.2653907,33.8949839 L1.2653907,33.8949839 C1.07474765,33.1886601 1.07474765,32.4269074 1.2653907,31.6097257 C1.45603374,30.792544 2.11954043,27.9464349 3.25591076,23.0713984 C0.333413937,21.8180148 -0.605655192,19.254325 0.438703376,15.3803291 C1.44605201,12.8675881 2.88380876,11.3948406 4.75197364,10.9620865 C7.55422094,10.3129554 14.0735932,10.1335928 16.6690643,15.2174495 Z" id="Path-5" fill="#FFFFFF"></path>
                                </g>
                                <path d="M9.86740923,25.3020215 L9.90173151,25.3038486 C10.0215866,25.2970258 10.1520891,25.3093114 10.293239,25.3407054 C10.8910267,25.4736631 11.9257388,25.4736631 13.3973754,25.3407054 L13.3973754,25.3407054 L13.9790347,25.9700358 C14.7223234,27.4240819 14.6629814,28.1573554 13.8010086,28.1698564 C12.5080494,28.1886078 11.9185749,28.1698564 10.293239,27.6048827 C9.81173493,27.4375099 9.46386608,27.2369033 9.2496324,27.0030628 C9.04140269,26.8261352 8.90868261,26.5613983 8.90868261,26.2655091 C8.90868261,25.7333896 9.33791914,25.3020215 9.86740923,25.3020215 Z" id="Combined-Shape" fill="#FFFFFF"></path>
                            </g>
                            <path d="M92.1052384,1.71745673 C92.4734656,1.71745673 92.7719728,2.01596386 92.7719728,2.38419108 C92.7719728,2.49114843 92.7467876,2.59222348 92.7020242,2.68180942 C92.7482643,2.76349164 92.7719728,2.85152344 92.7719728,2.94488078 C92.7719728,4.58144619 91.1410071,6.19691965 89.1291089,6.19691965 C87.1172108,6.19691965 85.4862451,4.58144619 85.4862451,2.94488078 L85.4889735,3.05045673 L84.3534148,3.05126176 C84.287151,4.59622726 82.7886233,6.09149415 80.9127111,6.19159379 L80.7128374,6.19691965 C78.7009392,6.19691965 77.0699735,4.58144619 77.0699735,2.94488078 C77.0699735,2.85152344 77.093682,2.76349164 77.138394,2.68078538 C77.0951587,2.59222348 77.0699735,2.49114843 77.0699735,2.38419108 C77.0699735,2.01596386 77.3684807,1.71745673 77.7367079,1.71745673 L92.1052384,1.71745673 Z" id="Combined-Shape" fill="#333333" transform="translate(84.920973, 3.957188) rotate(-13.000000) translate(-84.920973, -3.957188) "></path>
                        </g>
                    </g>
                </g>
            </g>
        </g>
    </g>
</svg>