<?xml version="1.0" encoding="UTF-8"?>
<svg width="21px" height="19px" viewBox="0 0 21 19" version="1.1" xmlns="http://www.w3.org/2000/svg" xmlns:xlink="http://www.w3.org/1999/xlink">
    <title>twitte</title>
    <g id="页面-1" stroke="none" stroke-width="1" fill="none" fill-rule="evenodd">
        <g id="首页3" transform="translate(-636.000000, -1522.000000)" fill="#71758B" fill-rule="nonzero">
            <g id="编组-3" transform="translate(0.000000, 1422.000000)">
                <g id="推特-twitter备份" transform="translate(636.000000, 100.000000)">
                    <path d="M5.30036823,5.07663871 C8.46186218,6.66911963 11.1315097,6.57513715 11.1315097,6.57513715 C11.1315097,6.57513715 10.1188848,3.05601537 13.2488164,1.49486194 C16.378748,-0.066291494 18.5328774,2.56521797 18.5328774,2.56521797 C18.5328774,2.56521797 19.0799579,2.41641238 19.4850079,2.26760678 C19.8926881,2.11880119 20.4792215,1.85251749 20.4792215,1.85251749 L19.51394,3.57030839 L21,3.41367092 C21,3.41367092 20.8158864,3.67995462 20.2214624,4.22296451 C19.6270384,4.7659744 19.3824303,5.04792184 19.3824303,5.04792184 C19.3824303,5.04792184 19.5954761,9.28496535 17.3571804,12.5456353 C15.1188848,15.8063053 12.2283009,17.7642736 8.02788006,18.1767523 C3.82745923,18.589231 1.09205681,16.8923251 1.09205681,16.8923251 C1.09205681,16.8923251 2.92793267,16.7879001 4.09836928,16.3414833 C5.26880589,15.8950665 6.95213046,14.7202855 6.95213046,14.7202855 C6.95213046,14.7202855 4.55865334,13.9867 3.69857969,13.1591321 C2.83850605,12.3341747 2.62546028,11.8433773 2.62546028,11.8433773 L4.98737507,11.8120498 C4.98737507,11.8120498 2.50184114,10.4962951 1.79694897,9.45465594 C1.09205681,8.41301678 1,7.40531573 1,7.40531573 L2.81746449,8.13629058 C2.81746449,8.13629058 1.30773277,6.089561 1.09205681,4.49708008 C0.876380852,2.90459915 1.36822725,2.04831433 1.36822725,2.04831433 C1.36822725,2.04831433 2.13887428,3.48415778 5.30036823,5.07663871 Z" id="路径"></path>
                </g>
            </g>
        </g>
    </g>
</svg>